HIERARCHY
ROOT Hips
{
	OFFSET 0.000000 0.000000 0.000000
	CHANNELS 6 Xposition Yposition Zposition Zrotation Yrotation Xrotation 
	JOINT LowerBack
	{
		OFFSET 0.000000 0.000000 0.000000
		CHANNELS 3 Zrotation Yrotation Xrotation
		JOINT Spine
		{
			OFFSET 0.028270 2.035590 -0.193380
			CHANNELS 3 Zrotation Yrotation Xrotation
			JOINT Spine1
			{
				OFFSET 0.056720 2.048850 -0.042750
				CHANNELS 3 Zrotation Yrotation Xrotation
				JOINT Neck
				{
					OFFSET 0.000000 0.000000 0.000000
					CHANNELS 3 Zrotation Yrotation Xrotation
					JOINT Neck1
					{
						OFFSET -0.054170 1.746240 0.172020
						CHANNELS 3 Zrotation Yrotation Xrotation
						JOINT Head
						{
							OFFSET 0.104070 1.761360 -0.123970
							CHANNELS 3 Zrotation Yrotation Xrotation
							End Site
							{
								OFFSET 0.000000 0.000000 0.000000
							}
						}
					}
				}
				JOINT LeftShoulder
				{
					OFFSET 0.000000 0.000000 0.000000
					CHANNELS 3 Zrotation Yrotation Xrotation
					JOINT LeftArm
					{
						OFFSET 3.362410 1.200890 -0.311210
						CHANNELS 3 Zrotation Yrotation Xrotation
						JOINT LeftForeArm
						{
							OFFSET 4.983000 -0.000000 -0.000000
							CHANNELS 3 Zrotation Yrotation Xrotation
							JOINT LeftHand
							{
								OFFSET 3.483560 -0.000000 -0.000000
								CHANNELS 3 Zrotation Yrotation Xrotation
								JOINT LeftFingerBase
								{
									OFFSET 0.000000 0.000000 0.000000
									CHANNELS 3 Zrotation Yrotation Xrotation
									JOINT LeftHandIndex1
									{
										OFFSET 0.715260 -0.000000 -0.000000
										CHANNELS 3 Zrotation Yrotation Xrotation
										End Site
										{
											OFFSET 0.000000 0.000000 0.000000
										}
									}
								}
								JOINT LThumb
								{
									OFFSET 0.000000 0.000000 0.000000
									CHANNELS 3 Zrotation Yrotation Xrotation
									End Site
									{
										OFFSET 0.000000 0.000000 0.000000
									}
								}
							}
						}
					}
				}
				JOINT RightShoulder
				{
					OFFSET 0.000000 0.000000 0.000000
					CHANNELS 3 Zrotation Yrotation Xrotation
					JOINT RightArm
					{
						OFFSET -3.136600 1.374050 -0.404650
						CHANNELS 3 Zrotation Yrotation Xrotation
						JOINT RightForeArm
						{
							OFFSET -5.241900 -0.000000 -0.000000
							CHANNELS 3 Zrotation Yrotation Xrotation
							JOINT RightHand
							{
								OFFSET -3.444170 -0.000000 -0.000000
								CHANNELS 3 Zrotation Yrotation Xrotation
								JOINT RightFingerBase
								{
									OFFSET 0.000000 0.000000 0.000000
									CHANNELS 3 Zrotation Yrotation Xrotation
									JOINT RightHandIndex1
									{
										OFFSET -0.622530 -0.000000 -0.000000
										CHANNELS 3 Zrotation Yrotation Xrotation
										End Site
										{
											OFFSET 0.000000 0.000000 0.000000
										}
									}
								}
								JOINT RThumb
								{
									OFFSET 0.000000 0.000000 0.000000
									CHANNELS 3 Zrotation Yrotation Xrotation
									End Site
									{
										OFFSET 0.000000 0.000000 0.000000
									}
								}
							}
						}
					}
				}
			}
		}
	}
}
}
MOTION
Frames: 9
Frame Time: 0.008333
-21.082001 17.593832 -0.254505 31.990852 82.075280 58.007694 -7.694087 3.039248 -9.238320 -1.778218 3.524054 -4.834227 -2.598729 3.169522 0.776395 1.171784 -7.713622 -9.261103 0.280996 0.039977 -0.355114 0.000000 0.000000 0.000000 5.626790 23.808472 2.747419 -39.588536 43.291767 -16.255805 -4.070906 -6.529810 0.011614 16.504847 -0.489147 -0.068178 -0.387102 -0.027785 -0.000000 0.000000 0.000000 0.000000 0.000000 0.000000 0.000000 -9.797399 -2.645891 -3.443654 12.993388 26.785203 -64.192495 0.823391 87.998219 -0.302152 -24.881537 10.759589 -2.589220 0.215553 -0.827687 0.000000 0.000000 0.000000 0.000000 0.000000 0.000000 0.000000 
-20.837854 17.733052 -0.261804 34.108610 82.152036 59.944733 -8.098113 3.116834 -9.441436 -1.835547 3.652116 -4.864917 -2.462547 3.294654 0.841770 0.935271 -7.834431 -9.112408 0.457599 0.052081 -0.306957 0.000000 0.000000 0.000000 5.916484 24.135838 2.736687 -39.217918 43.770474 -16.183620 -4.087737 -6.832066 0.006831 15.881241 0.233114 0.037704 -0.388842 -0.029340 -0.000000 0.000000 0.000000 0.000000 0.000000 0.000000 0.000000 -10.835340 -2.874535 -3.628541 13.026578 26.797710 -64.923496 0.960116 88.889991 -0.308869 -25.123373 10.850593 -2.638285 0.217266 -0.837990 0.000000 0.000000 0.000000 0.000000 0.000000 0.000000 0.000000 
-20.596706 17.863430 -0.271399 36.004304 82.262016 61.663530 -8.424076 3.181136 -9.611953 -1.872135 3.761474 -4.887830 -2.317829 3.402171 0.901516 0.675685 -7.946370 -8.980749 0.636877 0.064689 -0.264796 0.000000 0.000000 0.000000 6.190507 24.473056 2.743909 -39.019435 44.179429 -16.109638 -4.109861 -7.139943 0.002384 15.189807 0.866337 0.122687 -0.388872 -0.030194 -0.000000 0.000000 0.000000 0.000000 0.000000 0.000000 0.000000 -11.914659 -3.094019 -3.813994 13.113328 26.886786 -65.529391 1.094051 89.713775 -0.315190 -25.308868 10.965285 -2.687150 0.218185 -0.848871 0.000000 0.000000 0.000000 0.000000 0.000000 0.000000 0.000000 
-20.358844 17.984027 -0.283367 37.683087 82.412396 63.177383 -8.669570 3.236073 -9.757321 -1.887764 3.855246 -4.904267 -2.164911 3.494843 0.955674 0.395179 -8.049384 -8.868205 0.817723 0.077725 -0.229124 0.000000 0.000000 0.000000 6.451323 24.813349 2.768609 -38.991570 44.517457 -16.103703 -4.135835 -7.444458 -0.001595 14.459784 1.380629 0.183771 -0.387533 -0.029712 -0.000000 0.000000 0.000000 0.000000 0.000000 0.000000 0.000000 -13.026723 -3.300355 -3.996233 13.234372 27.029204 -66.013878 -178.776440 89.529504 179.678986 -25.434827 11.101862 -2.735119 0.218317 -0.860228 0.000000 0.000000 0.000000 0.000000 0.000000 0.000000 0.000000 
-20.124277 18.094067 -0.297505 39.176856 82.603355 64.521329 -8.841302 3.284439 -9.882241 -1.884413 3.935998 -4.915219 -2.005590 3.574877 1.004681 0.100801 -8.145211 -8.776606 0.998251 0.091056 -0.200375 0.000000 0.000000 0.000000 6.698152 25.152044 2.809580 -39.124417 44.785100 -16.210371 -4.163674 -7.743822 -0.005021 13.727855 1.763934 0.221757 -0.385221 -0.027557 -0.000000 0.000000 0.000000 0.000000 0.000000 0.000000 0.000000 -14.153692 -3.491690 -4.172242 13.368377 27.208077 -66.381643 -178.652699 88.839146 179.673708 -25.505598 11.257038 -2.781489 0.217732 -0.871848 0.000000 0.000000 0.000000 0.000000 0.000000 0.000000 0.000000 
-19.893123 18.192879 -0.313940 40.479452 82.839943 65.693135 -8.938274 3.329496 -9.993981 -1.862726 4.006439 -4.922100 -1.841945 3.644744 1.049525 -0.200269 -8.229259 -8.705984 1.176032 0.104478 -0.178424 0.000000 0.000000 0.000000 6.928729 25.486894 2.865409 -39.407002 44.982946 -16.485947 -4.190676 -8.035125 -0.007874 13.031752 2.015219 0.239746 -0.382386 -0.023481 -0.000000 0.000000 0.000000 0.000000 0.000000 0.000000 0.000000 -15.277035 -3.660484 -4.339425 13.493466 27.399768 -66.637870 -178.536234 88.212536 179.668989 -25.532393 11.426408 -2.826458 0.216630 -0.883441 0.000000 0.000000 0.000000 0.000000 0.000000 0.000000 0.000000 
-19.665055 18.279833 -0.332167 41.664072 83.108680 66.761131 -8.982758 3.371829 -10.092535 -1.828617 4.068239 -4.925373 -1.677639 3.705916 1.091442 -0.494535 -8.298959 -8.656532 1.348296 0.117779 -0.163239 0.000000 0.000000 0.000000 7.140677 25.818344 2.934232 -39.820520 45.113040 -16.950315 -4.213985 -8.323572 -0.010190 12.406517 2.150411 0.242939 -0.379374 -0.017596 -0.000000 0.000000 0.000000 0.000000 0.000000 0.000000 0.000000 -16.369428 -3.802572 -4.496007 13.590890 27.590330 -66.791925 -178.427264 87.645852 179.664789 -25.531155 11.605535 -2.870329 0.215182 -0.894654 0.000000 0.000000 0.000000 0.000000 0.000000 0.000000 0.000000 
-19.439312 18.354876 -0.352778 42.643402 83.434603 67.642458 -8.949902 3.413667 -10.185151 -1.778111 4.121460 -4.925916 -1.516723 3.758497 1.131378 -0.773346 -8.351200 -8.627482 1.510971 0.130611 -0.154449 0.000000 0.000000 0.000000 7.305704 26.154626 3.012203 -40.334310 45.176474 -17.605746 -4.231497 -8.619824 -0.012050 11.880961 2.194981 0.236732 -0.376571 -0.010274 -0.000000 0.000000 0.000000 0.000000 0.000000 0.000000 0.000000 -17.405333 -3.912661 -4.641932 13.632790 27.770214 -66.852151 -178.327804 87.131426 179.661105 -25.518997 11.789933 -2.913999 0.213786 -0.905097 0.000000 0.000000 0.000000 0.000000 0.000000 0.000000 0.000000 
-19.215654 18.417888 -0.375585 43.450761 83.816152 68.363331 -8.847174 3.454364 -10.269498 -1.714261 4.165675 -4.923487 -1.363651 3.802182 1.170181 -1.024207 -8.382259 -8.617908 1.660598 0.142686 -0.151697 0.000000 0.000000 0.000000 7.405216 26.503535 3.096028 -40.917694 45.172830 -18.437406 -4.241244 -8.934566 -0.013569 11.474393 2.177986 0.226230 -0.374167 -0.001990 -0.000000 0.000000 0.000000 0.000000 0.000000 0.000000 0.000000 -18.357674 -3.986772 -4.777353 13.602564 27.933919 -66.830113 -178.237965 86.660389 179.657899 -25.512179 11.974985 -2.958266 0.212692 -0.914402 0.000000 0.000000 0.000000 0.000000 0.000000 0.000000 0.000000 
